<svg xmlns="http://www.w3.org/2000/svg" xmlns:xlink="http://www.w3.org/1999/xlink" width="32" height="32"><defs><linearGradient id="a"><stop offset="0" stop-color="#000092"/><stop offset="1" stop-color="#ff00f3"/></linearGradient><linearGradient id="b" x1="6" x2="23" y1="16.001" y2="16.001" gradientUnits="userSpaceOnUse" xlink:href="#a"/></defs><path style="line-height:normal;text-indent:0;text-align:start;text-decoration-line:none;text-decoration-style:solid;text-decoration-color:#000;text-transform:none;block-progression:tb;isolation:auto;mix-blend-mode:normal" fill="url(#b)" d="M15.996 3.002c-1.683 0-3.171.818-4.394 1.99-1.222 1.172-2.225 2.713-3.045 4.363C6.926 12.638 6 15.895 6 18.88c0 3.171.841 5.922 2.672 7.629C10.445 28.16 12.979 29 15.996 29h.008c3.017 0 5.551-.839 7.324-2.492C25.158 24.8 26 22.05 26 18.878c0-2.983-.926-6.24-2.557-9.523-.82-1.65-1.823-3.191-3.045-4.363-1.223-1.172-2.711-1.99-4.394-1.99h-.008zm0 1h.008c1.36 0 2.601.657 3.701 1.71 1.102 1.057 2.059 2.508 2.844 4.089 1.054 2.122 1.783 4.215 2.158 6.199h-5.258c-.245-1.69-1.693-3-3.449-3-1.756 0-3.204 1.31-3.45 3H7.294c.375-1.984 1.104-4.077 2.158-6.2.785-1.58 1.742-3.031 2.844-4.087 1.1-1.054 2.341-1.711 3.701-1.711zm-1.492 2a.5.5 0 0 0-.227.05 5.96 5.96 0 0 0-1.54 1.1c-.928.895-1.683 2.066-2.3 3.315a23.356 23.356 0 0 0-.63 1.39.5.5 0 1 0 .923.383 22.286 22.286 0 0 1 .604-1.33c.582-1.179 1.289-2.258 2.096-3.037a4.99 4.99 0 0 1 1.28-.918.5.5 0 0 0-.206-.953zm-4.885 7.33a.5.5 0 0 0-.47.363 17.29 17.29 0 0 0-.13.455.5.5 0 1 0 .965.262c.039-.142.08-.286.123-.43a.5.5 0 0 0-.488-.65zM16 14c1.387 0 2.5 1.113 2.5 2.5S17.387 19 16 19a2.492 2.492 0 0 1-2.5-2.5c0-1.387 1.113-2.5 2.5-2.5zm0 1c-.823 0-1.5.678-1.5 1.5 0 .823.677 1.5 1.5 1.5s1.5-.677 1.5-1.5c0-.822-.677-1.5-1.5-1.5zm0 1c.282 0 .5.218.5.5 0 .282-.218.5-.5.5a.493.493 0 0 1-.5-.5c0-.282.218-.5.5-.5zm-8.87 1h5.42c.247 1.69 1.694 3 3.45 3 1.756 0 3.203-1.31 3.45-3h5.42c.081.64.13 1.27.13 1.879 0 2.993-.809 5.456-2.355 6.898C21.095 27.222 18.836 28 16.004 28h-.008c-2.832 0-5.092-.778-6.64-2.223C7.808 24.335 7 21.872 7 18.88c0-.61.049-1.239.13-1.879z" color="#000" font-family="sans-serif" font-weight="400" overflow="visible"/></svg>