<svg xmlns="http://www.w3.org/2000/svg" data-name="Layer 1" viewBox="0 0 128 128"><path d="M127.24,46.43a2,2,0,0,0-1.9-.32c-2,.7-4,1.45-6,2.23C93.65,58.74,91.4,74,91.32,74.62a2.32,2.32,0,0,0,0,.59L95.19,98l-3.53,1.51c-.3-.44-.59-.87-.9-1.3l-7-33c4.43-.87,14.22-4.08,20.77-15.82a4.65,4.65,0,0,0-.16-4.39c-1.27-2.09-4.11-3.11-8.68-3.14L84.1,41a11,11,0,0,0,1.76-7.88,2.21,2.21,0,0,0-.15-.48L75.36,10.12a7,7,0,0,0-3.94-3.47L51.34.32A8.18,8.18,0,0,0,49,0,8.29,8.29,0,0,0,46.3.42L29.18,6.6a8.34,8.34,0,0,0-3.92,3.21L20,18.46a11.3,11.3,0,0,0-1.4,4.61l-.78,16.6C0,60.91-.27,67,.07,68.3a5.08,5.08,0,0,0,1.55,2.25l.51.4c.71,2.61,6,20.35,20.51,28.58l0,5.59c-1,2.15-4.84,11.66-3.35,21.19a2,2,0,0,0,2,1.69l.31,0a2,2,0,0,0,1.67-2.29,33.08,33.08,0,0,1,1.2-13.7c1.65,5.4,4.73,13,9.53,15.75a2,2,0,0,0,1,.26H97.88a2,2,0,0,0,2-2,49.15,49.15,0,0,0-1.65-12.35l7.57-2.84a2,2,0,0,0,1.3-1.88L107,94.77c2.4-4.68,11.73-6.38,15.21-6.64A2,2,0,0,0,124,86.34L128,48.21A2,2,0,0,0,127.24,46.43Zm-57-36a3.16,3.16,0,0,1,1.5,1.32l7,15.23c-9.92.15-17,5.62-19.84,8.27-1-.11-2.06-.17-3.12-.19V35c1.11-10.49-1.85-24-3.44-30.19ZM64,50c3.36,0,6,3.51,6,8s-2.64,8-6,8-6-3.51-6-8S60.63,50,64,50ZM22.65,23.25a7.16,7.16,0,0,1,.83-2.73l5.2-8.64a4.66,4.66,0,0,1,1.86-1.52l2-.73L33,21.08A2,2,0,0,0,35,23h.08A2,2,0,0,0,37,20.92L36.51,8.2l11.14-4L48,4.1c1.18,4.42,4.43,17.58,4,28.11C37.46,28.53,27.07,33,22,36.06ZM51,56a2,2,0,0,1-2,2,2,2,0,0,1-4,0,2,2,0,1,1,0-4h4A2,2,0,0,1,51,56ZM7.22,73.57a12.34,12.34,0,0,0,3.2.43,14.72,14.72,0,0,0,6.45-1.61,46.85,46.85,0,0,0,5.62,5.88l.12,16.52C14,88.91,9.28,79,7.22,73.57ZM23,73.24c-.75-.77-1.66-1.76-2.67-3A32.71,32.71,0,0,0,24,67Q23.43,69.93,23,73.24Zm1.65-13.18C22.6,63,16.58,70,10.42,70a9.2,9.2,0,0,1-5.64-2c2.31-.24,9.7-1.54,20.07-8.58C24.78,59.6,24.7,59.82,24.64,60.06Zm3.89-8.45C17.2,60.93,8.65,63.25,5.39,63.82A59.79,59.79,0,0,1,9,57.7l12.16-6.47A18.57,18.57,0,0,0,27.7,45.8l7.83-10.52a37.38,37.38,0,0,1,14.65.62C45.75,37.42,35,41.94,28.53,51.61Zm8.58-3.67a38.29,38.29,0,0,1,3.47-2.7A3.84,3.84,0,0,1,41,47c0,1.6-.93,3-2,3C38.15,50,37.39,49.11,37.11,47.94ZM47.36,70A2,2,0,0,1,46,69.45l-2.43-2.3H40.14a2,2,0,0,1-2-1.9L38,62.09a2,2,0,0,1,4-.19L42,63.15h2.3a2,2,0,0,1,1.38.55l2.05,1.95,1.44-.6a2,2,0,1,1,1.55,3.69l-2.64,1.1A1.9,1.9,0,0,1,47.36,70Zm32.15,32.58L64.37,120c-1.41,1.61-4.28,4-7.12,4a4.47,4.47,0,0,1-1.39-.21,8.1,8.1,0,0,1-5.8-8.79c1.15-9.16,7.49-25.07,7.76-25.74a2,2,0,1,1,3.71,1.48c-.06.16-6.42,16.11-7.5,24.76a4.19,4.19,0,0,0,3,4.48c.73.23,2.8-.88,4.29-2.6L76.49,100a2,2,0,0,1,3,2.62Zm1.25-63.75c-1.18,1.42-3.27,2.1-6.2,2A39.56,39.56,0,0,0,64,36.27a25.43,25.43,0,0,1,16.59-5.21l1.39,3A6.71,6.71,0,0,1,80.76,38.83Zm39.48,45.5c-4.07.55-14.24,2.57-17.08,9.21a2.05,2.05,0,0,0-.17.8l.08,13.2L97,109.81a46.25,46.25,0,0,0-3.2-6.9L98.21,101a2,2,0,0,0,1.18-2.17l-4-24C95.76,73,99.27,60.78,120.88,52c.92-.37,1.86-.73,2.8-1.09ZM64,62c.81,0,2-1.56,2-4a6.45,6.45,0,0,0-.19-1.58,2,2,0,0,1-1.9,1.41,2,2,0,0,1-1.79-1.12A7.35,7.35,0,0,0,62,58C62,60.44,63.18,62,64,62Z"/></svg>